{
  "accessors": [
    {
      "bufferView": 2,
      "componentType": 5126,
      "count": 5942,
      "max": [
        67.1346435546875,
        21.168209075927734,
        202.7212371826172
      ],
      "min": [
        -67.09099578857422,
        -12.876344680786133,
        103.46671295166016
      ],
      "type": "VEC3"
    },
    {
      "bufferView": 2,
      "byteOffset": 71304,
      "componentType": 5126,
      "count": 5942,
      "max": [
        0.9987824559211731,
        0.9996482133865356,
        1.0
      ],
      "min": [
        -0.998786985874176,
        -0.9999409914016724,
        -1.0
      ],
      "type": "VEC3"
    },
    {
      "bufferView": 0,
      "componentType": 5125,
      "count": 34179,
      "type": "SCALAR"
    },
    {
      "bufferView": 2,
      "byteOffset": 142608,
      "componentType": 5126,
      "count": 189,
      "max": [
        11.138837814331055,
        -3.701333999633789,
        189.1029510498047
      ],
      "min": [
        -12.5130033493042,
        -6.8116021156311035,
        158.76942443847656
      ],
      "type": "VEC3"
    },
    {
      "bufferView": 2,
      "byteOffset": 144876,
      "componentType": 5126,
      "count": 189,
      "max": [
        0.8598772883415222,
        -0.16168104112148285,
        0.6287800073623657
      ],
      "min": [
        -0.8004521131515503,
        -0.9520225524902344,
        -0.9806552529335022
      ],
      "type": "VEC3"
    },
    {
      "bufferView": 1,
      "componentType": 5126,
      "count": 189,
      "max": [
        82.514404296875,
        9.799999237060547
      ],
      "min": [
        -85.64167785644531,
        -0.1405780017375946
      ],
      "type": "VEC2"
    },
    {
      "bufferView": 0,
      "byteOffset": 136716,
      "componentType": 5125,
      "count": 321,
      "type": "SCALAR"
    },
    {
      "bufferView": 2,
      "byteOffset": 147144,
      "componentType": 5126,
      "count": 5419,
      "max": [
        60.88256072998047,
        22.140850067138672,
        176.39596557617188
      ],
      "min": [
        -60.84940719604492,
        -15.297833442687988,
        99.49303436279297
      ],
      "type": "VEC3"
    },
    {
      "bufferView": 2,
      "byteOffset": 212172,
      "componentType": 5126,
      "count": 5419,
      "max": [
        0.9997918605804443,
        0.9999066591262817,
        0.9995929002761841
      ],
      "min": [
        -0.9996013641357422,
        -0.9998733401298523,
        -0.9999397397041321
      ],
      "type": "VEC3"
    },
    {
      "bufferView": 3,
      "componentType": 5126,
      "count": 5419,
      "max": [
        0.9998486638069153,
        0.9999718070030212,
        0.9999433755874634,
        1.0
      ],
      "min": [
        -0.9999679923057556,
        -0.999609112739563,
        -0.9995792508125305,
        -1.0
      ],
      "type": "VEC4"
    },
    {
      "bufferView": 1,
      "byteOffset": 1512,
      "componentType": 5126,
      "count": 5419,
      "max": [
        0.9970099925994873,
        0.996425986289978
      ],
      "min": [
        0.0013180000241845846,
        0.0007520000217482448
      ],
      "type": "VEC2"
    },
    {
      "bufferView": 0,
      "byteOffset": 138000,
      "componentType": 5125,
      "count": 24270,
      "type": "SCALAR"
    }
  ],
  "asset": {
    "extras": {
      "author": "Tijerín Art Studio (https://sketchfab.com/tijerin_art)",
      "license": "CC-BY-4.0 (http://creativecommons.org/licenses/by/4.0/)",
      "source": "https://sketchfab.com/3d-models/basketball-jacket-cda1eb88e50d4c73823f23745e87aa88",
      "title": "Basketball jacket"
    },
    "generator": "Sketchfab-14.97.0",
    "version": "2.0"
  },
  "bufferViews": [
    {
      "buffer": 0,
      "byteLength": 235080,
      "name": "floatBufferViews",
      "target": 34963
    },
    {
      "buffer": 0,
      "byteLength": 44864,
      "byteOffset": 235080,
      "byteStride": 8,
      "name": "floatBufferViews",
      "target": 34962
    },
    {
      "buffer": 0,
      "byteLength": 277200,
      "byteOffset": 279944,
      "byteStride": 12,
      "name": "floatBufferViews",
      "target": 34962
    },
    {
      "buffer": 0,
      "byteLength": 86704,
      "byteOffset": 557144,
      "byteStride": 16,
      "name": "floatBufferViews",
      "target": 34962
    }
  ],
  "buffers": [
    {
      "byteLength": 643848,
      "uri": "scene.bin"
    }
  ],
  "extensionsUsed": [
    "KHR_materials_specular"
  ],
  "images": [
    {
      "uri": "textures/lambert2SG_baseColor.png"
    },
    {
      "uri": "textures/lambert2SG_metallicRoughness.png"
    },
    {
      "uri": "textures/lambert2SG_normal.png"
    }
  ],
  "materials": [
    {
      "doubleSided": true,
      "extensions": {
        "KHR_materials_specular": {
          "specularColorFactor": [
            1.0,
            1.0,
            1.0
          ],
          "specularFactor": 0.1043010386442986
        }
      },
      "name": "Depotlambert3SG",
      "pbrMetallicRoughness": {
        "baseColorFactor": [
          0.0,
          0.0,
          0.0,
          1.0
        ],
        "metallicFactor": 0.0,
        "roughnessFactor": 0.6
      }
    },
    {
      "doubleSided": true,
      "name": "lambert2SG",
      "normalTexture": {
        "index": 2
      },
      "pbrMetallicRoughness": {
        "baseColorTexture": {
          "index": 0
        },
        "metallicRoughnessTexture": {
          "index": 1
        }
      }
    }
  ],
  "meshes": [
    {
      "name": "Object_0",
      "primitives": [
        {
          "attributes": {
            "NORMAL": 1,
            "POSITION": 0
          },
          "indices": 2,
          "material": 0,
          "mode": 4
        }
      ]
    },
    {
      "name": "Object_1",
      "primitives": [
        {
          "attributes": {
            "NORMAL": 4,
            "POSITION": 3,
            "TEXCOORD_0": 5
          },
          "indices": 6,
          "material": 0,
          "mode": 4
        }
      ]
    },
    {
      "name": "Object_2",
      "primitives": [
        {
          "attributes": {
            "NORMAL": 8,
            "POSITION": 7,
            "TANGENT": 9,
            "TEXCOORD_0": 10
          },
          "indices": 11,
          "material": 1,
          "mode": 4
        }
      ]
    }
  ],
  "nodes": [
    {
      "children": [
        1
      ],
      "matrix": [
        1.0,
        0.0,
        0.0,
        0.0,
        0.0,
        2.220446049250313e-16,
        -1.0,
        0.0,
        0.0,
        1.0,
        2.220446049250313e-16,
        0.0,
        0.0,
        0.0,
        0.0,
        1.0
      ],
      "name": "Sketchfab_model"
    },
    {
      "children": [
        2,
        3,
        4
      ],
      "name": "Depot.obj.cleaner.materialmerger.gles"
    },
    {
      "mesh": 0,
      "name": "Object_2"
    },
    {
      "mesh": 1,
      "name": "Object_3"
    },
    {
      "mesh": 2,
      "name": "Object_4"
    }
  ],
  "samplers": [
    {
      "magFilter": 9729,
      "minFilter": 9987,
      "wrapS": 10497,
      "wrapT": 10497
    }
  ],
  "scene": 0,
  "scenes": [
    {
      "name": "Sketchfab_Scene",
      "nodes": [
        0
      ]
    }
  ],
  "textures": [
    {
      "sampler": 0,
      "source": 0
    },
    {
      "sampler": 0,
      "source": 1
    },
    {
      "sampler": 0,
      "source": 2
    }
  ]
}
