{
  "accessors": [
    {
      "bufferView": 1,
      "componentType": 5126,
      "count": 65532,
      "max": [
        166.9331512451172,
        11.377985954284668,
        103.76229095458984
      ],
      "min": [
        112.3008804321289,
        -15.11710262298584,
        42.52486038208008
      ],
      "type": "VEC3"
    },
    {
      "bufferView": 1,
      "byteOffset": 786384,
      "componentType": 5126,
      "count": 65532,
      "max": [
        0.9999989867210388,
        0.999998927116394,
        0.9999846816062927
      ],
      "min": [
        -0.9999867677688599,
        -0.9999985694885254,
        -0.9999694228172302
      ],
      "type": "VEC3"
    },
    {
      "bufferView": 0,
      "componentType": 5125,
      "count": 371127,
      "type": "SCALAR"
    },
    {
      "bufferView": 1,
      "byteOffset": 1572768,
      "componentType": 5126,
      "count": 46427,
      "max": [
        166.90394592285156,
        11.786458015441895,
        103.82173156738281
      ],
      "min": [
        111.90888214111328,
        -15.09113597869873,
        42.52482604980469
      ],
      "type": "VEC3"
    },
    {
      "bufferView": 1,
      "byteOffset": 2129892,
      "componentType": 5126,
      "count": 46427,
      "max": [
        0.9999882578849792,
        0.9999766945838928,
        0.9992934465408325
      ],
      "min": [
        -0.9999709725379944,
        -0.9999946355819702,
        -0.999417781829834
      ],
      "type": "VEC3"
    },
    {
      "bufferView": 0,
      "byteOffset": 1484508,
      "componentType": 5125,
      "count": 248361,
      "type": "SCALAR"
    },
    {
      "bufferView": 1,
      "byteOffset": 2687016,
      "componentType": 5126,
      "count": 7639,
      "max": [
        167.06784057617188,
        11.831196784973145,
        103.85507202148438
      ],
      "min": [
        111.79460906982422,
        -15.151660919189453,
        42.510276794433594
      ],
      "type": "VEC3"
    },
    {
      "bufferView": 1,
      "byteOffset": 2778684,
      "componentType": 5126,
      "count": 7639,
      "max": [
        0.9999680519104004,
        0.9999635815620422,
        0.9999516606330872
      ],
      "min": [
        -0.9999567270278931,
        -0.9999819397926331,
        -0.9999961853027344
      ],
      "type": "VEC3"
    },
    {
      "bufferView": 0,
      "byteOffset": 2477952,
      "componentType": 5125,
      "count": 38712,
      "type": "SCALAR"
    }
  ],
  "asset": {
    "extras": {
      "author": "nikolaysena2001 (https://sketchfab.com/nikolaysena2001)",
      "license": "CC-BY-4.0 (http://creativecommons.org/licenses/by/4.0/)",
      "source": "https://sketchfab.com/3d-models/camiseta-43e18ff7b1f34453b5045bb7062c9904",
      "title": "CAMISETA"
    },
    "generator": "Sketchfab-12.68.0",
    "version": "2.0"
  },
  "bufferViews": [
    {
      "buffer": 0,
      "byteLength": 2632800,
      "name": "floatBufferViews",
      "target": 34963
    },
    {
      "buffer": 0,
      "byteLength": 2870352,
      "byteOffset": 2632800,
      "byteStride": 12,
      "name": "floatBufferViews",
      "target": 34962
    }
  ],
  "buffers": [
    {
      "byteLength": 5503152,
      "uri": "scene.bin"
    }
  ],
  "materials": [
    {
      "doubleSided": true,
      "name": "Mat.1",
      "pbrMetallicRoughness": {
        "metallicFactor": 0.0,
        "roughnessFactor": 0.6
      }
    }
  ],
  "meshes": [
    {
      "name": "Object_0",
      "primitives": [
        {
          "attributes": {
            "NORMAL": 1,
            "POSITION": 0
          },
          "indices": 2,
          "material": 0,
          "mode": 4
        }
      ]
    },
    {
      "name": "Object_1",
      "primitives": [
        {
          "attributes": {
            "NORMAL": 4,
            "POSITION": 3
          },
          "indices": 5,
          "material": 0,
          "mode": 4
        }
      ]
    },
    {
      "name": "Object_2",
      "primitives": [
        {
          "attributes": {
            "NORMAL": 7,
            "POSITION": 6
          },
          "indices": 8,
          "material": 0,
          "mode": 4
        }
      ]
    }
  ],
  "nodes": [
    {
      "children": [
        1
      ],
      "matrix": [
        1.0,
        0.0,
        0.0,
        0.0,
        0.0,
        2.220446049250313e-16,
        -1.0,
        0.0,
        0.0,
        1.0,
        2.220446049250313e-16,
        0.0,
        0.0,
        0.0,
        0.0,
        1.0
      ],
      "name": "Sketchfab_model"
    },
    {
      "children": [
        2,
        3,
        4
      ],
      "name": "CAMISETA.obj.cleaner.materialmerger.gles"
    },
    {
      "mesh": 0,
      "name": "Object_2"
    },
    {
      "mesh": 1,
      "name": "Object_3"
    },
    {
      "mesh": 2,
      "name": "Object_4"
    }
  ],
  "scene": 0,
  "scenes": [
    {
      "name": "Sketchfab_Scene",
      "nodes": [
        0
      ]
    }
  ]
}
