{
  "accessors": [
    {
      "bufferView": 2,
      "componentType": 5126,
      "count": 2843,
      "max": [
        0.0874629020690918,
        0.2922394871711731,
        0.2424708902835846
      ],
      "min": [
        -0.09414029121398926,
        -0.19299349188804626,
        -0.23414798080921173
      ],
      "type": "VEC3"
    },
    {
      "bufferView": 2,
      "byteOffset": 34116,
      "componentType": 5126,
      "count": 2843,
      "max": [
        0.9999809861183167,
        0.9772595167160034,
        0.9999023675918579
      ],
      "min": [
        -0.9999232888221741,
        -0.9999139308929443,
        -0.9999619126319885
      ],
      "type": "VEC3"
    },
    {
      "bufferView": 3,
      "componentType": 5126,
      "count": 2843,
      "max": [
        1.0,
        0.9998623132705688,
        0.9999998807907104,
        1.0
      ],
      "min": [
        -0.9591430425643921,
        -0.9750757813453674,
        -0.999997079372406,
        1.0
      ],
      "type": "VEC4"
    },
    {
      "bufferView": 1,
      "componentType": 5126,
      "count": 2843,
      "max": [
        0.9993379712104797,
        0.9722049236297607
      ],
      "min": [
        0.0006620509666390717,
        0.0006620879867114127
      ],
      "type": "VEC2"
    },
    {
      "bufferView": 1,
      "byteOffset": 22744,
      "componentType": 5126,
      "count": 2843,
      "max": [
        0.9993379712104797,
        0.9722049236297607
      ],
      "min": [
        0.0006620509666390717,
        0.0006620879867114127
      ],
      "type": "VEC2"
    },
    {
      "bufferView": 1,
      "byteOffset": 45488,
      "componentType": 5126,
      "count": 2843,
      "max": [
        0.9993379712104797,
        0.9722049236297607
      ],
      "min": [
        0.0006620509666390717,
        0.0006620879867114127
      ],
      "type": "VEC2"
    },
    {
      "bufferView": 1,
      "byteOffset": 68232,
      "componentType": 5126,
      "count": 2843,
      "max": [
        0.9993379712104797,
        0.9722049236297607
      ],
      "min": [
        0.0006620509666390717,
        0.0006620879867114127
      ],
      "type": "VEC2"
    },
    {
      "bufferView": 1,
      "byteOffset": 90976,
      "componentType": 5126,
      "count": 2843,
      "max": [
        0.9993379712104797,
        0.9722049236297607
      ],
      "min": [
        0.0006620509666390717,
        0.0006620879867114127
      ],
      "type": "VEC2"
    },
    {
      "bufferView": 1,
      "byteOffset": 113720,
      "componentType": 5126,
      "count": 2843,
      "max": [
        0.9993379712104797,
        0.9722049236297607
      ],
      "min": [
        0.0006620509666390717,
        0.0006620879867114127
      ],
      "type": "VEC2"
    },
    {
      "bufferView": 1,
      "byteOffset": 136464,
      "componentType": 5126,
      "count": 2843,
      "max": [
        0.9993379712104797,
        0.9722049236297607
      ],
      "min": [
        0.0006620509666390717,
        0.0006620879867114127
      ],
      "type": "VEC2"
    },
    {
      "bufferView": 1,
      "byteOffset": 159208,
      "componentType": 5126,
      "count": 2843,
      "max": [
        0.9993379712104797,
        0.9722049236297607
      ],
      "min": [
        0.0006620509666390717,
        0.0006620879867114127
      ],
      "type": "VEC2"
    },
    {
      "bufferView": 1,
      "byteOffset": 181952,
      "componentType": 5126,
      "count": 2843,
      "max": [
        0.9993379712104797,
        0.9722049236297607
      ],
      "min": [
        0.0006620509666390717,
        0.0006620879867114127
      ],
      "type": "VEC2"
    },
    {
      "bufferView": 1,
      "byteOffset": 204696,
      "componentType": 5126,
      "count": 2843,
      "max": [
        0.9993379712104797,
        0.9722049236297607
      ],
      "min": [
        0.0006620509666390717,
        0.0006620879867114127
      ],
      "type": "VEC2"
    },
    {
      "bufferView": 0,
      "componentType": 5125,
      "count": 13098,
      "type": "SCALAR"
    }
  ],
  "asset": {
    "extras": {
      "author": "vicente betoret ferrero (https://sketchfab.com/deathcow)",
      "license": "CC-BY-4.0 (http://creativecommons.org/licenses/by/4.0/)",
      "source": "https://sketchfab.com/3d-models/leather-jacket-558d94e97d0b490db39ffe5d8bb61672",
      "title": "leather jacket"
    },
    "generator": "Sketchfab-16.8.0",
    "version": "2.0"
  },
  "bufferViews": [
    {
      "buffer": 0,
      "byteLength": 52392,
      "name": "floatBufferViews",
      "target": 34963
    },
    {
      "buffer": 0,
      "byteLength": 227440,
      "byteOffset": 52392,
      "byteStride": 8,
      "name": "floatBufferViews",
      "target": 34962
    },
    {
      "buffer": 0,
      "byteLength": 68232,
      "byteOffset": 279832,
      "byteStride": 12,
      "name": "floatBufferViews",
      "target": 34962
    },
    {
      "buffer": 0,
      "byteLength": 45488,
      "byteOffset": 348064,
      "byteStride": 16,
      "name": "floatBufferViews",
      "target": 34962
    }
  ],
  "buffers": [
    {
      "byteLength": 393552,
      "uri": "scene.bin"
    }
  ],
  "extensionsUsed": [
    "KHR_materials_specular"
  ],
  "images": [
    {
      "uri": "textures/base_material.001_baseColor.png"
    },
    {
      "uri": "textures/base_material.001_metallicRoughness.png"
    },
    {
      "uri": "textures/base_material.001_normal.png"
    }
  ],
  "materials": [
    {
      "doubleSided": true,
      "extensions": {
        "KHR_materials_specular": {
          "specularColorFactor": [
            1.0,
            1.0,
            1.0
          ],
          "specularFactor": 0.04665247970925634
        }
      },
      "name": "base_material.001",
      "normalTexture": {
        "index": 2
      },
      "occlusionTexture": {
        "index": 1
      },
      "pbrMetallicRoughness": {
        "baseColorTexture": {
          "index": 0
        },
        "metallicFactor": 0.4005505448631104,
        "metallicRoughnessTexture": {
          "index": 1
        }
      }
    }
  ],
  "meshes": [
    {
      "name": "mesh_base_material.001_0",
      "primitives": [
        {
          "attributes": {
            "NORMAL": 1,
            "POSITION": 0,
            "TANGENT": 2,
            "TEXCOORD_0": 3,
            "TEXCOORD_1": 4,
            "TEXCOORD_2": 5,
            "TEXCOORD_3": 6,
            "TEXCOORD_4": 7,
            "TEXCOORD_5": 8,
            "TEXCOORD_6": 9,
            "TEXCOORD_7": 10,
            "TEXCOORD_8": 11,
            "TEXCOORD_9": 12
          },
          "indices": 13,
          "material": 0,
          "mode": 4
        }
      ]
    }
  ],
  "nodes": [
    {
      "children": [
        1
      ],
      "matrix": [
        1.0,
        0.0,
        0.0,
        0.0,
        0.0,
        2.220446049250313e-16,
        -1.0,
        0.0,
        0.0,
        1.0,
        2.220446049250313e-16,
        0.0,
        0.0,
        0.0,
        0.0,
        1.0
      ],
      "name": "Sketchfab_model"
    },
    {
      "children": [
        2
      ],
      "matrix": [
        1.0,
        0.0,
        0.0,
        0.0,
        0.0,
        0.0,
        1.0,
        0.0,
        0.0,
        -1.0,
        0.0,
        0.0,
        0.0,
        0.0,
        0.0,
        1.0
      ],
      "name": "chaqueta.fbx"
    },
    {
      "children": [
        3
      ],
      "name": "RootNode"
    },
    {
      "children": [
        4
      ],
      "matrix": [
        1.0,
        0.0,
        0.0,
        0.0,
        0.0,
        2.220446049250313e-16,
        -1.0,
        0.0,
        0.0,
        1.0,
        2.220446049250313e-16,
        0.0,
        0.0,
        0.0,
        0.0,
        1.0
      ],
      "name": "Scene"
    },
    {
      "children": [
        5
      ],
      "matrix": [
        2.053508996963501,
        0.0,
        0.0,
        0.0,
        0.0,
        -2.734412621917775e-07,
        2.0535089969634828,
        0.0,
        0.0,
        -2.0535089969634828,
        -2.734412621917775e-07,
        0.0,
        0.0,
        0.0,
        0.0,
        1.0
      ],
      "name": "mesh"
    },
    {
      "mesh": 0,
      "name": "mesh_base_material.001_0"
    }
  ],
  "samplers": [
    {
      "magFilter": 9729,
      "minFilter": 9987,
      "wrapS": 10497,
      "wrapT": 10497
    }
  ],
  "scene": 0,
  "scenes": [
    {
      "name": "Sketchfab_Scene",
      "nodes": [
        0
      ]
    }
  ],
  "textures": [
    {
      "sampler": 0,
      "source": 0
    },
    {
      "sampler": 0,
      "source": 1
    },
    {
      "sampler": 0,
      "source": 2
    }
  ]
}
